<svg width="20" height="20" viewBox="0 0 20 20" fill="none" xmlns="http://www.w3.org/2000/svg">
<path d="M1.5 2.67257C1.5 2.02509 2.0249 1.50018 2.67239 1.50018H6.77575C7.42324 1.50018 7.94814 2.02509 7.94814 2.67257V6.77594C7.94814 7.42342 7.42324 7.94833 6.77575 7.94833H2.67239C2.0249 7.94833 1.5 7.42342 1.5 6.77594V2.67257Z" stroke="#131313" stroke-width="1.5" stroke-linecap="round" stroke-linejoin="round"/>
<path d="M1.5 13.2241C1.5 12.5766 2.0249 12.0517 2.67239 12.0517H6.77575C7.42324 12.0517 7.94814 12.5766 7.94814 13.2241V17.3275C7.94814 17.975 7.42324 18.4998 6.77575 18.4998H2.67239C2.0249 18.4998 1.5 17.975 1.5 17.3275V13.2241Z" stroke="#131313" stroke-width="1.5" stroke-linecap="round" stroke-linejoin="round"/>
<path d="M12.0519 2.67257C12.0519 2.02509 12.5768 1.50018 13.2243 1.50018H17.3276C17.9751 1.50018 18.5 2.02509 18.5 2.67257V6.77594C18.5 7.42342 17.9751 7.94833 17.3276 7.94833H13.2243C12.5768 7.94833 12.0519 7.42342 12.0519 6.77594V2.67257Z" stroke="#131313" stroke-width="1.5" stroke-linecap="round" stroke-linejoin="round"/>
<path d="M12.0519 13.2241C12.0519 12.5766 12.5768 12.0517 13.2243 12.0517H17.3276C17.9751 12.0517 18.5 12.5766 18.5 13.2241V17.3275C18.5 17.975 17.9751 18.4998 17.3276 18.4998H13.2243C12.5768 18.4998 12.0519 17.975 12.0519 17.3275V13.2241Z" stroke="#131313" stroke-width="1.5" stroke-linecap="round" stroke-linejoin="round"/>
</svg>
