<svg width="20" height="20" viewBox="0 0 20 20" fill="none" xmlns="http://www.w3.org/2000/svg">
<path fill-rule="evenodd" clip-rule="evenodd" d="M2.7715 2.84815L2.75659 2.86501C-0.927478 6.57704 -0.918843 12.5727 2.7825 16.274C6.49247 19.984 12.5075 19.984 16.2175 16.274C19.9275 12.564 19.9275 6.54899 16.2175 2.83901C15.8958 2.51728 15.5564 2.22328 15.2025 1.95708L18.4996 1.95708C18.9967 1.95708 19.3996 1.55414 19.3996 1.05708C19.3996 0.560024 18.9967 0.157081 18.4996 0.157081L13.4996 0.157081C13.0142 0.157081 12.4651 0.298538 12.1205 0.81489C11.8429 1.23086 11.8242 1.73242 11.8242 2.05755L11.8242 6.55689C11.8242 7.05395 12.2272 7.45689 12.7242 7.45689C13.2213 7.45689 13.6242 7.05395 13.6242 6.55689L13.6242 3.29026C14.0406 3.56501 14.4359 3.88589 14.8033 4.25323C17.7322 7.18216 17.7322 11.9309 14.8033 14.8598C11.8743 17.7887 7.12564 17.7887 4.19671 14.8598C1.26776 11.9309 1.26776 7.18216 4.19671 4.25323C4.217 4.23293 4.23596 4.21231 4.25444 4.19034L4.25375 4.19117L4.26604 4.17719C4.27884 4.1628 4.30075 4.13859 4.33152 4.10608C4.39313 4.04099 4.48976 3.94317 4.61931 3.82466C4.87937 3.58676 5.26647 3.27066 5.76394 2.9685C6.75875 2.36425 8.16061 1.83436 9.87597 2.04878C10.424 2.11728 10.9238 1.72856 10.9923 1.18054C11.0608 0.632517 10.6721 0.132727 10.124 0.0642243C7.83939 -0.221357 5.98605 0.493559 4.72566 1.25912C4.09553 1.64186 3.60503 2.04192 3.26939 2.34895C3.10109 2.5029 2.97034 2.63474 2.87904 2.73119C2.83336 2.77946 2.79743 2.81899 2.7715 2.84815Z" fill="black"/>
</svg>
