<svg width="22" height="17" viewBox="0 0 22 17" fill="none" xmlns="http://www.w3.org/2000/svg">
<path d="M18.3198 14.6234H8.84474V2.36036H18.3198C18.7316 2.36036 19.046 2.4661 19.2575 2.66801C19.4685 2.86954 19.5844 3.17418 19.5844 3.58817V13.3956C19.5844 13.8095 19.4685 14.1142 19.2575 14.3157C19.046 14.5176 18.7316 14.6234 18.3198 14.6234ZM3.68024 2.36036H7.4131V14.6234H3.68024C3.26406 14.6234 2.94972 14.5176 2.73945 14.3158C2.52954 14.1144 2.41556 13.8098 2.41556 13.3956V3.58817C2.41556 3.17393 2.52954 2.86936 2.73945 2.66793C2.94972 2.46616 3.26406 2.36036 3.68024 2.36036ZM3.66327 16.0337H18.3367C19.2344 16.0337 19.9148 15.8205 20.3707 15.3872C20.8271 14.9534 21.05 14.3073 21.05 13.4607V3.52306C21.05 2.67638 20.8271 2.03031 20.3707 1.59656C19.9148 1.16325 19.2344 0.95 18.3367 0.95H3.66327C2.7699 0.95 2.08951 1.16119 1.63252 1.59342C1.17501 2.02615 0.95 2.67224 0.95 3.52306V13.4607C0.95 14.3115 1.17501 14.9576 1.63252 15.3903C2.08951 15.8225 2.7699 16.0337 3.66327 16.0337Z" fill="#131313" stroke="black" stroke-width="0.1"/>
</svg>
